<?xml version="1.0" standalone="no"?>
<!DOCTYPE svg PUBLIC "-//W3C//DTD SVG 20010904//EN"
 "http://www.w3.org/TR/2001/REC-SVG-20010904/DTD/svg10.dtd">
<svg version="1.0" xmlns="http://www.w3.org/2000/svg"
 width="720.000000pt" height="720.000000pt" viewBox="0 0 720.000000 720.000000"
 preserveAspectRatio="xMidYMid meet">

<g transform="translate(0.000000,720.000000) scale(0.100000,-0.100000)"
fill="#000000" stroke="none">
<path d="M3380 7044 c-19 -2 -84 -9 -145 -15 -430 -43 -916 -196 -1300 -411
-1222 -683 -1911 -1999 -1774 -3388 80 -809 455 -1582 1042 -2146 548 -528
1218 -847 1993 -951 185 -24 657 -24 839 1 576 79 1056 258 1515 566 760 510
1290 1306 1469 2206 48 241 56 334 56 674 0 347 -8 435 -61 693 -181 891 -710
1681 -1464 2187 -455 305 -955 492 -1510 565 -118 16 -575 29 -660 19z m-150
-3169 l0 -1605 -105 0 -105 0 0 216 0 216 -61 -54 c-139 -122 -223 -175 -365
-231 -170 -68 -439 -116 -569 -102 -408 44 -763 421 -882 936 -24 105 -24 392
0 509 85 412 303 667 680 796 l112 39 190 -1 c156 -1 207 -4 282 -22 194 -44
328 -121 503 -288 l110 -106 0 644 c0 355 3 648 7 651 3 4 51 7 105 7 l98 0 0
-1605z m448 1554 c116 -56 273 -234 403 -454 33 -55 150 -278 261 -495 111
-217 216 -421 233 -452 l31 -57 479 750 480 749 288 0 287 0 0 -35 0 -35 -127
0 -128 0 -144 -223 c-79 -122 -332 -512 -562 -868 l-418 -645 262 -513 c286
-559 301 -582 409 -635 69 -33 154 -44 194 -23 71 37 158 157 240 332 73 158
94 114 55 -117 -53 -305 -156 -477 -302 -502 -93 -16 -234 42 -329 135 -92 91
-146 183 -401 686 -129 255 -236 463 -239 462 -3 0 -183 -275 -400 -612 l-396
-612 -269 0 -270 0 -3 27 -3 27 122 3 121 3 469 733 c258 402 469 737 469 743
0 6 -113 234 -251 507 -165 325 -271 523 -307 572 -112 151 -247 260 -324 260
-101 0 -204 -101 -270 -264 l-29 -71 4 140 c7 247 84 454 187 508 45 23 95 16
178 -24z"/>
<path d="M1990 4474 c-67 -25 -93 -41 -108 -68 -14 -27 -17 -129 -29 -806 -7
-426 -12 -845 -11 -930 l3 -155 49 -33 c142 -95 368 -87 644 24 177 72 250
125 404 296 l78 88 0 559 0 559 -38 49 c-21 26 -89 96 -151 155 -148 142 -241
187 -508 244 -77 16 -304 29 -333 18z"/>
</g>
</svg>
