<?xml version="1.0" standalone="no"?>
<!DOCTYPE svg PUBLIC "-//W3C//DTD SVG 20010904//EN"
 "http://www.w3.org/TR/2001/REC-SVG-20010904/DTD/svg10.dtd">
<svg version="1.0" xmlns="http://www.w3.org/2000/svg"
 width="695.000000pt" height="695.000000pt" viewBox="0 0 695.000000 695.000000"
 preserveAspectRatio="xMidYMid meet">
<metadata>
Created by potrace 1.14, written by Peter Selinger 2001-2017
</metadata>
<g transform="translate(0.000000,695.000000) scale(0.100000,-0.100000)"
fill="#000000" stroke="none">
<path d="M3140 6939 c-667 -62 -1315 -325 -1855 -755 -140 -111 -415 -386
-529 -529 -404 -507 -655 -1096 -736 -1731 -28 -221 -28 -667 0 -888 128
-1001 685 -1893 1530 -2453 441 -292 924 -472 1471 -548 159 -22 552 -31 731
-16 825 70 1575 419 2164 1006 575 574 920 1302 1005 2120 16 153 16 514 0
670 -84 815 -430 1546 -1005 2120 -583 581 -1331 932 -2146 1005 -135 12 -494
11 -630 -1z m-62 -3166 l2 -1603 -100 0 -100 0 0 220 c0 121 -4 220 -8 220 -4
0 -28 -21 -52 -46 -65 -66 -192 -160 -272 -200 -81 -41 -241 -96 -348 -119
-41 -9 -140 -19 -220 -22 -128 -5 -155 -3 -223 16 -317 87 -593 381 -721 766
-116 354 -69 772 120 1063 96 148 222 255 398 338 171 81 338 106 553 85 286
-29 455 -114 696 -350 l77 -76 0 658 0 658 98 -3 97 -3 3 -1602z m2755 1590
c156 -6 157 -6 157 -29 0 -23 -2 -23 -127 -26 l-127 -3 -565 -870 -564 -870
80 -155 c43 -85 161 -315 261 -512 117 -227 197 -373 223 -402 53 -60 151
-108 230 -114 51 -4 65 -1 98 21 67 45 141 155 228 342 18 40 39 72 49 74 15
3 16 -5 10 -75 -23 -250 -96 -470 -187 -562 -58 -59 -102 -75 -188 -70 -136 8
-259 92 -368 250 -28 40 -160 288 -293 551 -134 262 -246 477 -249 477 -3 0
-184 -274 -401 -609 -260 -402 -401 -612 -415 -615 -28 -8 -217 -7 -363 1
-119 6 -122 7 -122 29 0 23 3 23 103 26 l102 3 472 738 472 737 -261 513
c-204 401 -274 529 -323 593 -114 146 -231 234 -313 234 -74 0 -162 -65 -216
-160 l-31 -55 -3 129 c-3 144 8 201 61 299 39 75 84 107 150 107 81 0 148 -40
267 -160 172 -172 220 -252 615 -1024 136 -267 160 -307 170 -292 7 9 224 347
481 751 l469 734 130 0 c72 1 201 -2 288 -6z"/>
<path d="M1805 4366 c-49 -19 -82 -55 -89 -99 -3 -17 -11 -437 -19 -932 l-14
-900 21 -23 c59 -67 196 -108 328 -98 192 14 480 123 604 229 48 41 145 142
212 220 l32 38 0 547 0 548 -22 30 c-108 144 -261 281 -375 335 -44 22 -143
55 -220 75 -118 31 -158 37 -278 40 -107 4 -149 1 -180 -10z"/>
</g>
</svg>
